 0
SECTION
 2
HEADER
 9
$ACADVER
 1
AC1009
 0
ENDSEC
 0
SECTION
 2
TABLES
 0
TABLE
 2
LTYPE
 70
1
 0
LTYPE
 2
CONTINUOUS
 70
64
 3
solid line
 72
65
 73
0
 40
0.0
 0
ENDTAB
 0
TABLE
 2
LAYER
 70
6
 0
LAYER
 2
0
 70
0
 62
7
 6
CONTINUOUS
 0
LAYER
 2
SPLINE
 70
64
 62
7
 6
CONTINUOUS
 0
ENDTAB
 0
ENDSEC
 0
SECTION
 2
BLOCKS
 0
ENDSEC
 0
SECTION
 2
ENTITIES
 0
POLYLINE
 8
SPLINE
 66
1
 10
0.0
 20
0.0
 30
0.0
 70
9
 0
VERTEX
 8
SPLINE
 10
-2.5563
 20
0
 30
2.4458
 70
32
 0
VERTEX
 8
SPLINE
 10
-2.0701
 20
0
 30
-1.8565
 70
32
 0
VERTEX
 8
SPLINE
 10
3.2635
 20
0
 30
-1.9301
 70
32
 0
VERTEX
 8
SPLINE
 10
1.8786
 20
0
 30
1.8859
 70
32
 0
VERTEX
 8
SPLINE
 10
1.7913
 20
0
 30
1.5361
 70
32
 0
VERTEX
 8
SPLINE
 10
1.63
 20
0
 30
1.0567
 70
32
 0
VERTEX
 8
SPLINE
 10
1.4553
 20
0
 30
0.6573
 70
32
 0
VERTEX
 8
SPLINE
 10
1.276
 20
0
 30
0.331
 70
32
 0
VERTEX
 8
SPLINE
 10
1.0589
 20
0
 30
0.0183
 70
32
 0
VERTEX
 8
SPLINE
 10
0.8697
 20
0
 30
-0.1964
 70
32
 0
VERTEX
 8
SPLINE
 10
0.6567
 20
0
 30
-0.3854
 70
32
 0
VERTEX
 8
SPLINE
 10
0.501
 20
0
 30
-0.4935
 70
32
 0
VERTEX
 8
SPLINE
 10
0.3339
 20
0
 30
-0.5845
 70
32
 0
VERTEX
 8
SPLINE
 10
0.1551
 20
0
 30
-0.6562
 70
32
 0
VERTEX
 8
SPLINE
 10
-0.0357
 20
0
 30
-0.7062
 70
32
 0
VERTEX
 8
SPLINE
 10
-0.2388
 20
0
 30
-0.7324
 70
32
 0
VERTEX
 8
SPLINE
 10
-0.3451
 20
0
 30
-0.7358
 70
32
 0
VERTEX
 8
SPLINE
 10
-0.5673
 20
0
 30
-0.722
 70
32
 0
VERTEX
 8
SPLINE
 10
-0.7873
 20
0
 30
-0.6811
 70
32
 0
VERTEX
 8
SPLINE
 10
-0.9905
 20
0
 30
-0.6165
 70
32
 0
VERTEX
 8
SPLINE
 10
-1.1775
 20
0
 30
-0.5303
 70
32
 0
VERTEX
 8
SPLINE
 10
-1.3491
 20
0
 30
-0.4248
 70
32
 0
VERTEX
 8
SPLINE
 10
-1.5059
 20
0
 30
-0.302
 70
32
 0
VERTEX
 8
SPLINE
 10
-1.6484
 20
0
 30
-0.1641
 70
32
 0
VERTEX
 8
SPLINE
 10
-1.7775
 20
0
 30
-0.0133
 70
32
 0
VERTEX
 8
SPLINE
 10
-1.9474
 20
0
 30
0.2324
 70
32
 0
VERTEX
 8
SPLINE
 10
-2.0906
 20
0
 30
0.4949
 70
32
 0
VERTEX
 8
SPLINE
 10
-2.2441
 20
0
 30
0.8587
 70
32
 0
VERTEX
 8
SPLINE
 10
-2.3833
 20
0
 30
1.3112
 70
32
 0
VERTEX
 8
SPLINE
 10
-2.4868
 20
0
 30
1.8061
 70
32
 0
VERTEX
 8
SPLINE
 10
-2.5428
 20
0
 30
2.2437
 70
32
 0
SEQEND
 0
ENDSEC
 0
EOF
